Coordinates
version=1
nRows=15
nColumns=63
inDegrees=yes

Units are S.I. units (second, meters, Newtons, ...)
If the header above contains a line with 'inDegrees', this indicates whether rotational values are in degrees (yes) or radians (no).

endheader
time	pelvis_tilt	pelvis_list	pelvis_rotation	pelvis_tx	pelvis_ty	pelvis_tz	hip_flexion_r	hip_adduction_r	hip_rotation_r	knee_angle_r	knee_angle_r_beta	ankle_angle_r	subtalar_angle_r	mtp_angle_r	hip_flexion_l	hip_adduction_l	hip_rotation_l	knee_angle_l	knee_angle_l_beta	ankle_angle_l	subtalar_angle_l	mtp_angle_l	L5_S1_Flex_Ext	L5_S1_Lat_Bending	L5_S1_axial_rotation	L4_L5_Flex_Ext	L4_L5_Lat_Bending	L4_L5_axial_rotation	L3_L4_Flex_Ext	L3_L4_Lat_Bending	L3_L4_axial_rotation	L2_L3_Flex_Ext	L2_L3_Lat_Bending	L2_L3_axial_rotation	L1_L2_Flex_Ext	L1_L2_Lat_Bending	L1_L2_axial_rotation	L1_T12_Flex_Ext	L1_T12_Lat_Bending	L1_T12_axial_rotation	Abs_r3	Abs_r2	Abs_r1	Abs_t1	Abs_t2	neck_flexion	neck_bending	neck_rotation	arm_flex_r	arm_add_r	arm_rot_r	elbow_flex_r	pro_sup_r	wrist_flex_r	wrist_dev_r	arm_flex_l	arm_add_l	arm_rot_l	elbow_flex_l	pro_sup_l	wrist_flex_l	wrist_dev_l
1.361702	4.332265	-2.712044	83.829769	-0.091190	0.815879	0.651260	-0.490041	1.201602	6.226670	3.865677	0.067469	21.312847	7.105653	0.000000	-2.794995	-2.360762	-0.076887	0.623874	0.010889	22.347675	-11.598023	0.000000	-0.005095	0.726627	1.328547	-0.009461	0.966413	1.411581	-0.008370	1.766720	1.411581	-0.005823	1.766720	1.162479	-0.004731	1.481737	1.079445	-0.002911	1.125545	0.996410	-0.036391	8.219746	7.388981	0.000000	0.000000	23.558949	-3.846678	11.720534	-0.204610	-17.114605	38.555533	23.879271	74.214766	-6.473949	5.456286	17.591546	-5.181454	134.867754	18.236694	14.600260	-10.353471	-7.587961
1.382979	4.375765	-2.716614	84.002267	-0.091260	0.815824	0.651280	-0.556295	1.253353	6.365763	3.761544	0.065651	21.255143	6.760167	0.000000	-2.779733	-2.423252	0.084333	0.606779	0.010590	22.364627	-11.535931	0.000000	-0.003126	0.728295	1.291312	-0.005806	0.968632	1.372019	-0.005136	1.770775	1.372019	-0.003573	1.770775	1.129898	-0.002903	1.485138	1.049191	-0.001786	1.128128	0.968484	-0.022331	8.238613	7.181889	0.000000	0.000000	23.572092	-3.809542	11.920197	-0.077122	-17.107116	39.259599	23.630024	73.568748	-6.494700	5.403889	17.518513	-5.458040	133.266701	18.366550	14.467507	-10.489990	-7.566645
1.404255	4.443236	-2.708067	84.208231	-0.091379	0.815782	0.651273	-0.644251	1.329399	6.429726	3.642151	0.063568	21.220789	6.496939	0.000000	-2.781475	-2.511902	0.308493	0.584044	0.010193	22.379178	-11.516272	0.000000	-0.002425	0.732111	1.247669	-0.004504	0.973708	1.325649	-0.003984	1.780056	1.325649	-0.002772	1.780056	1.091711	-0.002252	1.492921	1.013731	-0.001386	1.134041	0.935752	-0.017323	8.281790	6.939162	0.000000	0.000000	23.507109	-3.802465	12.076718	0.061262	-17.106425	40.069056	23.352854	72.910690	-6.531382	5.316026	17.477501	-5.647251	132.290678	18.410659	14.055900	-10.465418	-7.607952
1.425532	4.574150	-2.682920	84.462498	-0.091678	0.815719	0.651178	-0.762692	1.464627	6.502571	3.513101	0.061315	21.164054	6.178553	0.000000	-2.803987	-2.658722	0.597064	0.558665	0.009751	22.423041	-11.561583	0.000000	-0.003100	0.746058	1.188593	-0.005757	0.992257	1.262880	-0.005093	1.813965	1.262880	-0.003543	1.813965	1.040019	-0.002879	1.521361	0.965732	-0.001771	1.155644	0.891445	-0.022144	8.439557	6.610598	0.000000	0.000000	23.359342	-3.778037	12.391038	-0.131488	-17.419487	35.992085	24.099217	76.242825	-7.072951	5.829861	17.374275	-5.786169	131.213794	18.415325	13.908296	-10.458410	-7.632322
1.446809	4.687490	-2.651874	84.761331	-0.091960	0.815678	0.651038	-0.900793	1.590696	6.631960	3.362163	0.058681	21.074544	5.722225	0.000000	-2.828966	-2.792916	0.890731	0.531721	0.009280	22.457732	-11.578945	0.000000	-0.004077	0.755360	1.126895	-0.007571	1.004628	1.197326	-0.006698	1.836582	1.197326	-0.004659	1.836582	0.986033	-0.003786	1.540329	0.915602	-0.002329	1.170052	0.845171	-0.029119	8.544780	6.267452	0.000000	0.000000	23.175846	-3.736938	12.626783	-0.161905	-17.544158	34.631638	24.249489	77.470272	-7.349001	5.992508	17.300824	-5.875825	130.651898	18.396993	13.779688	-10.392966	-7.642033
1.468085	4.789547	-2.612398	85.100738	-0.092242	0.815668	0.650773	-1.071673	1.710360	6.777279	3.178351	0.055473	20.945830	5.183093	0.000000	-2.870093	-2.918751	1.293788	0.490816	0.008566	22.433727	-11.737802	0.000000	-0.004660	0.761744	1.064456	-0.008655	1.013120	1.130984	-0.007656	1.852105	1.130984	-0.005326	1.852105	0.931399	-0.004328	1.553349	0.864870	-0.002663	1.179942	0.798342	-0.033288	8.617002	5.920183	0.000000	0.000000	22.965522	-3.655713	12.855129	-0.084834	-17.487502	35.892928	23.798206	76.807702	-7.319194	5.842491	17.239804	-5.874871	130.788185	18.312346	13.447421	-10.196309	-7.680094
1.489362	4.862524	-2.573799	85.485818	-0.092500	0.815677	0.650450	-1.223392	1.804208	6.764385	3.048694	0.053210	20.858960	4.769424	0.000000	-2.897292	-3.020353	1.674511	0.468407	0.008175	22.420798	-11.837337	0.000000	-0.003765	0.761849	1.001085	-0.006992	1.013259	1.063652	-0.006185	1.852359	1.063652	-0.004303	1.852359	0.875949	-0.003496	1.553562	0.813381	-0.002151	1.180104	0.750813	-0.026893	8.618185	5.567732	0.000000	0.000000	22.691820	-3.591257	12.921655	0.133917	-17.291397	39.114566	22.981510	74.666188	-7.117509	5.424928	17.213436	-5.853507	131.253270	18.283455	13.198401	-10.002667	-7.675495
1.510638	4.908708	-2.536621	85.884584	-0.092726	0.815716	0.650057	-1.376682	1.874760	6.715360	2.922980	0.051016	20.762585	4.372536	0.000000	-2.923714	-3.098175	1.969041	0.445827	0.007781	22.419706	-11.803960	0.000000	-0.002281	0.756452	0.945815	-0.004236	1.006081	1.004929	-0.003747	1.839237	1.004929	-0.002607	1.839237	0.827588	-0.002118	1.542557	0.768475	-0.001303	1.171744	0.709362	-0.016292	8.557134	5.260341	0.000000	0.000000	22.403324	-3.587105	12.742542	0.465234	-16.985581	43.979992	21.860303	71.174514	-6.778101	4.750853	17.203458	-5.812703	131.880484	18.286911	13.059607	-9.808601	-7.633880
1.531915	4.924642	-2.499004	86.299747	-0.092928	0.815778	0.649601	-1.531466	1.918701	6.618106	2.802702	0.048916	20.665613	3.997721	0.000000	-2.949804	-3.147632	2.264943	0.424218	0.007404	22.404103	-11.755527	0.000000	-0.000497	0.746131	0.893933	-0.000923	0.992354	0.949804	-0.000817	1.814142	0.949804	-0.000568	1.814142	0.782192	-0.000462	1.521510	0.726321	-0.000284	1.155756	0.670450	-0.003551	8.440379	4.971788	0.000000	0.000000	22.114917	-3.616991	12.407395	0.899634	-16.587775	50.271405	20.502203	66.552902	-6.310463	3.871841	17.195866	-5.776910	132.531670	18.341638	12.960970	-9.649241	-7.607642
1.553191	4.922318	-2.462352	86.717381	-0.093112	0.815861	0.649086	-1.684566	1.948201	6.491826	2.690727	0.046962	20.564143	3.633981	0.000000	-2.977706	-3.180020	2.601492	0.403704	0.007046	22.365835	-11.748442	0.000000	0.002061	0.733108	0.850598	0.003827	0.975034	0.903761	0.003386	1.782479	0.903761	0.002355	1.782479	0.744273	0.001914	1.494954	0.691111	0.001178	1.135585	0.637949	0.014720	8.293067	4.730772	0.000000	0.000000	21.851817	-3.676512	11.949387	1.382520	-16.115284	57.593742	18.975205	61.129514	-5.708137	2.867278	17.193245	-5.701895	133.416749	18.387146	12.838279	-9.561800	-7.609468
1.574468	4.898131	-2.428399	87.101580	-0.093245	0.815956	0.648549	-1.824693	1.957089	6.331888	2.591524	0.045231	20.472643	3.337211	0.000000	-3.006756	-3.189409	2.912193	0.385590	0.006730	22.320325	-11.728850	0.000000	0.005121	0.717895	0.818953	0.009510	0.954801	0.870137	0.008413	1.745491	0.870137	0.005853	1.745491	0.716584	0.004755	1.463932	0.665399	0.002926	1.112020	0.614215	0.036580	8.120976	4.554770	0.000000	0.000000	21.622866	-3.758607	11.454835	1.920316	-15.604658	65.721350	17.355106	54.955447	-5.034884	1.753132	17.179811	-5.653319	134.100588	18.496050	12.760658	-9.534601	-7.651593
1.595745	4.848352	-2.391688	87.475462	-0.093351	0.816060	0.648001	-1.961320	1.939499	6.080558	2.499875	0.043631	20.396078	3.161550	0.000000	-3.038333	-3.175309	3.061148	0.373423	0.006517	22.335776	-11.446236	0.000000	0.007886	0.699746	0.797913	0.014646	0.930663	0.847783	0.012957	1.701364	0.847783	0.009013	1.701364	0.698174	0.007323	1.426923	0.648304	0.004506	1.083907	0.598435	0.056332	7.915672	4.437753	0.000000	0.000000	21.458178	-3.824091	10.939688	2.482214	-15.062692	74.322369	15.677498	48.184139	-4.308879	0.566662	17.163097	-5.620708	134.611975	18.619828	13.071606	-9.616410	-7.667827
1.617021	4.776802	-2.364147	87.834270	-0.093420	0.816153	0.647475	-2.077934	1.904197	5.834739	2.421498	0.042263	20.321526	2.977416	0.000000	-3.057850	-3.137637	3.356204	0.362959	0.006335	22.284026	-11.395750	0.000000	0.011979	0.679145	0.782038	0.022247	0.903263	0.830915	0.019681	1.651273	0.830915	0.013691	1.651273	0.684283	0.011124	1.384912	0.635406	0.006845	1.051995	0.586528	0.085566	7.682622	4.349459	0.000000	0.000000	21.384132	-3.854432	10.426201	3.056345	-14.488602	83.325646	13.928176	41.070201	-3.509740	-0.644535	17.161109	-5.535166	135.595574	18.671847	13.205730	-9.749630	-7.728055
1.638298	4.676003	-2.347649	88.129275	-0.093401	0.816232	0.646992	-2.169309	1.840078	5.574756	2.352240	0.041054	20.256897	2.857671	0.000000	-3.069231	-3.068644	3.645108	0.352767	0.006157	22.213165	-11.392975	0.000000	0.017328	0.656147	0.778058	0.032180	0.872675	0.826687	0.028468	1.595355	0.826687	0.019804	1.595355	0.680801	0.016091	1.338014	0.632172	0.009901	1.016371	0.583544	0.123773	7.422461	4.327327	0.000000	0.000000	21.401634	-3.791154	10.034078	3.637206	-13.908008	92.475323	12.155227	33.693878	-2.681810	-1.866799	17.142884	-5.455383	136.594998	18.683332	13.410933	-9.928906	-7.829527
1.659574	4.558797	-2.333477	88.402896	-0.093335	0.816297	0.646566	-2.247259	1.760953	5.290508	2.293098	0.040022	20.213336	2.789790	0.000000	-3.073339	-2.983149	3.934714	0.346304	0.006044	22.139728	-11.405330	0.000000	0.022693	0.631303	0.774576	0.042142	0.839633	0.822987	0.037282	1.534949	0.822987	0.025935	1.534949	0.677754	0.021072	1.287352	0.629343	0.012967	0.977888	0.580932	0.162091	7.141422	4.307959	0.000000	0.000000	21.534067	-3.730806	9.617136	4.209732	-13.318271	101.519638	10.385708	26.397383	-1.813954	-3.049047	17.134702	-5.369502	137.785193	18.662983	13.666721	-10.178603	-7.900901
